<?xml version="1.0" encoding="UTF-8"?>
<svg width="512" height="512" viewBox="0 0 512 512" fill="none" xmlns="http://www.w3.org/2000/svg">
  <path fill-rule="evenodd" clip-rule="evenodd" d="M128 0H384C454.692 0 512 57.3075 512 128V384C512 454.692 454.692 512 384 512H128C57.3075 512 0 454.692 0 384V128C0 57.3075 57.3075 0 128 0ZM96 128C96 115.85 105.85 106 118 106H394C406.15 106 416 115.85 416 128V368C416 380.15 406.15 390 394 390H118C105.85 390 96 380.15 96 368V128ZM256 432L192 368H320L256 432ZM256 184L296 216L280 264H232L216 216L256 184Z" fill="black"/>
</svg>